%TF.GenerationSoftware,KiCad,Pcbnew,8.0.8*%
%TF.CreationDate,2025-05-09T12:24:10-07:00*%
%TF.ProjectId,displayPCB,64697370-6c61-4795-9043-422e6b696361,rev?*%
%TF.SameCoordinates,Original*%
%TF.FileFunction,Legend,Top*%
%TF.FilePolarity,Positive*%
%FSLAX46Y46*%
G04 Gerber Fmt 4.6, Leading zero omitted, Abs format (unit mm)*
G04 Created by KiCad (PCBNEW 8.0.8) date 2025-05-09 12:24:10*
%MOMM*%
%LPD*%
G01*
G04 APERTURE LIST*
%ADD10C,0.150000*%
%ADD11C,0.120000*%
G04 APERTURE END LIST*
D10*
X211685333Y-59764819D02*
X211352000Y-59288628D01*
X211113905Y-59764819D02*
X211113905Y-58764819D01*
X211113905Y-58764819D02*
X211494857Y-58764819D01*
X211494857Y-58764819D02*
X211590095Y-58812438D01*
X211590095Y-58812438D02*
X211637714Y-58860057D01*
X211637714Y-58860057D02*
X211685333Y-58955295D01*
X211685333Y-58955295D02*
X211685333Y-59098152D01*
X211685333Y-59098152D02*
X211637714Y-59193390D01*
X211637714Y-59193390D02*
X211590095Y-59241009D01*
X211590095Y-59241009D02*
X211494857Y-59288628D01*
X211494857Y-59288628D02*
X211113905Y-59288628D01*
X212066286Y-58860057D02*
X212113905Y-58812438D01*
X212113905Y-58812438D02*
X212209143Y-58764819D01*
X212209143Y-58764819D02*
X212447238Y-58764819D01*
X212447238Y-58764819D02*
X212542476Y-58812438D01*
X212542476Y-58812438D02*
X212590095Y-58860057D01*
X212590095Y-58860057D02*
X212637714Y-58955295D01*
X212637714Y-58955295D02*
X212637714Y-59050533D01*
X212637714Y-59050533D02*
X212590095Y-59193390D01*
X212590095Y-59193390D02*
X212018667Y-59764819D01*
X212018667Y-59764819D02*
X212637714Y-59764819D01*
X202172237Y-57454819D02*
X202172237Y-56454819D01*
X202172237Y-56454819D02*
X202410332Y-56454819D01*
X202410332Y-56454819D02*
X202553189Y-56502438D01*
X202553189Y-56502438D02*
X202648427Y-56597676D01*
X202648427Y-56597676D02*
X202696046Y-56692914D01*
X202696046Y-56692914D02*
X202743665Y-56883390D01*
X202743665Y-56883390D02*
X202743665Y-57026247D01*
X202743665Y-57026247D02*
X202696046Y-57216723D01*
X202696046Y-57216723D02*
X202648427Y-57311961D01*
X202648427Y-57311961D02*
X202553189Y-57407200D01*
X202553189Y-57407200D02*
X202410332Y-57454819D01*
X202410332Y-57454819D02*
X202172237Y-57454819D01*
X203124618Y-56550057D02*
X203172237Y-56502438D01*
X203172237Y-56502438D02*
X203267475Y-56454819D01*
X203267475Y-56454819D02*
X203505570Y-56454819D01*
X203505570Y-56454819D02*
X203600808Y-56502438D01*
X203600808Y-56502438D02*
X203648427Y-56550057D01*
X203648427Y-56550057D02*
X203696046Y-56645295D01*
X203696046Y-56645295D02*
X203696046Y-56740533D01*
X203696046Y-56740533D02*
X203648427Y-56883390D01*
X203648427Y-56883390D02*
X203076999Y-57454819D01*
X203076999Y-57454819D02*
X203696046Y-57454819D01*
X161647333Y-59764819D02*
X161314000Y-59288628D01*
X161075905Y-59764819D02*
X161075905Y-58764819D01*
X161075905Y-58764819D02*
X161456857Y-58764819D01*
X161456857Y-58764819D02*
X161552095Y-58812438D01*
X161552095Y-58812438D02*
X161599714Y-58860057D01*
X161599714Y-58860057D02*
X161647333Y-58955295D01*
X161647333Y-58955295D02*
X161647333Y-59098152D01*
X161647333Y-59098152D02*
X161599714Y-59193390D01*
X161599714Y-59193390D02*
X161552095Y-59241009D01*
X161552095Y-59241009D02*
X161456857Y-59288628D01*
X161456857Y-59288628D02*
X161075905Y-59288628D01*
X162504476Y-59098152D02*
X162504476Y-59764819D01*
X162266381Y-58717200D02*
X162028286Y-59431485D01*
X162028286Y-59431485D02*
X162647333Y-59431485D01*
X152002905Y-57454819D02*
X152002905Y-56454819D01*
X152002905Y-56454819D02*
X152241000Y-56454819D01*
X152241000Y-56454819D02*
X152383857Y-56502438D01*
X152383857Y-56502438D02*
X152479095Y-56597676D01*
X152479095Y-56597676D02*
X152526714Y-56692914D01*
X152526714Y-56692914D02*
X152574333Y-56883390D01*
X152574333Y-56883390D02*
X152574333Y-57026247D01*
X152574333Y-57026247D02*
X152526714Y-57216723D01*
X152526714Y-57216723D02*
X152479095Y-57311961D01*
X152479095Y-57311961D02*
X152383857Y-57407200D01*
X152383857Y-57407200D02*
X152241000Y-57454819D01*
X152241000Y-57454819D02*
X152002905Y-57454819D01*
X153431476Y-56788152D02*
X153431476Y-57454819D01*
X153193381Y-56407200D02*
X152955286Y-57121485D01*
X152955286Y-57121485D02*
X153574333Y-57121485D01*
X186539333Y-59764819D02*
X186206000Y-59288628D01*
X185967905Y-59764819D02*
X185967905Y-58764819D01*
X185967905Y-58764819D02*
X186348857Y-58764819D01*
X186348857Y-58764819D02*
X186444095Y-58812438D01*
X186444095Y-58812438D02*
X186491714Y-58860057D01*
X186491714Y-58860057D02*
X186539333Y-58955295D01*
X186539333Y-58955295D02*
X186539333Y-59098152D01*
X186539333Y-59098152D02*
X186491714Y-59193390D01*
X186491714Y-59193390D02*
X186444095Y-59241009D01*
X186444095Y-59241009D02*
X186348857Y-59288628D01*
X186348857Y-59288628D02*
X185967905Y-59288628D01*
X186872667Y-58764819D02*
X187491714Y-58764819D01*
X187491714Y-58764819D02*
X187158381Y-59145771D01*
X187158381Y-59145771D02*
X187301238Y-59145771D01*
X187301238Y-59145771D02*
X187396476Y-59193390D01*
X187396476Y-59193390D02*
X187444095Y-59241009D01*
X187444095Y-59241009D02*
X187491714Y-59336247D01*
X187491714Y-59336247D02*
X187491714Y-59574342D01*
X187491714Y-59574342D02*
X187444095Y-59669580D01*
X187444095Y-59669580D02*
X187396476Y-59717200D01*
X187396476Y-59717200D02*
X187301238Y-59764819D01*
X187301238Y-59764819D02*
X187015524Y-59764819D01*
X187015524Y-59764819D02*
X186920286Y-59717200D01*
X186920286Y-59717200D02*
X186872667Y-59669580D01*
X236577333Y-59764819D02*
X236244000Y-59288628D01*
X236005905Y-59764819D02*
X236005905Y-58764819D01*
X236005905Y-58764819D02*
X236386857Y-58764819D01*
X236386857Y-58764819D02*
X236482095Y-58812438D01*
X236482095Y-58812438D02*
X236529714Y-58860057D01*
X236529714Y-58860057D02*
X236577333Y-58955295D01*
X236577333Y-58955295D02*
X236577333Y-59098152D01*
X236577333Y-59098152D02*
X236529714Y-59193390D01*
X236529714Y-59193390D02*
X236482095Y-59241009D01*
X236482095Y-59241009D02*
X236386857Y-59288628D01*
X236386857Y-59288628D02*
X236005905Y-59288628D01*
X237529714Y-59764819D02*
X236958286Y-59764819D01*
X237244000Y-59764819D02*
X237244000Y-58764819D01*
X237244000Y-58764819D02*
X237148762Y-58907676D01*
X237148762Y-58907676D02*
X237053524Y-59002914D01*
X237053524Y-59002914D02*
X236958286Y-59050533D01*
X246300666Y-68288819D02*
X246300666Y-69003104D01*
X246300666Y-69003104D02*
X246253047Y-69145961D01*
X246253047Y-69145961D02*
X246157809Y-69241200D01*
X246157809Y-69241200D02*
X246014952Y-69288819D01*
X246014952Y-69288819D02*
X245919714Y-69288819D01*
X247300666Y-69288819D02*
X246729238Y-69288819D01*
X247014952Y-69288819D02*
X247014952Y-68288819D01*
X247014952Y-68288819D02*
X246919714Y-68431676D01*
X246919714Y-68431676D02*
X246824476Y-68526914D01*
X246824476Y-68526914D02*
X246729238Y-68574533D01*
X227256905Y-57454819D02*
X227256905Y-56454819D01*
X227256905Y-56454819D02*
X227495000Y-56454819D01*
X227495000Y-56454819D02*
X227637857Y-56502438D01*
X227637857Y-56502438D02*
X227733095Y-56597676D01*
X227733095Y-56597676D02*
X227780714Y-56692914D01*
X227780714Y-56692914D02*
X227828333Y-56883390D01*
X227828333Y-56883390D02*
X227828333Y-57026247D01*
X227828333Y-57026247D02*
X227780714Y-57216723D01*
X227780714Y-57216723D02*
X227733095Y-57311961D01*
X227733095Y-57311961D02*
X227637857Y-57407200D01*
X227637857Y-57407200D02*
X227495000Y-57454819D01*
X227495000Y-57454819D02*
X227256905Y-57454819D01*
X228780714Y-57454819D02*
X228209286Y-57454819D01*
X228495000Y-57454819D02*
X228495000Y-56454819D01*
X228495000Y-56454819D02*
X228399762Y-56597676D01*
X228399762Y-56597676D02*
X228304524Y-56692914D01*
X228304524Y-56692914D02*
X228209286Y-56740533D01*
X177087571Y-57454819D02*
X177087571Y-56454819D01*
X177087571Y-56454819D02*
X177325666Y-56454819D01*
X177325666Y-56454819D02*
X177468523Y-56502438D01*
X177468523Y-56502438D02*
X177563761Y-56597676D01*
X177563761Y-56597676D02*
X177611380Y-56692914D01*
X177611380Y-56692914D02*
X177658999Y-56883390D01*
X177658999Y-56883390D02*
X177658999Y-57026247D01*
X177658999Y-57026247D02*
X177611380Y-57216723D01*
X177611380Y-57216723D02*
X177563761Y-57311961D01*
X177563761Y-57311961D02*
X177468523Y-57407200D01*
X177468523Y-57407200D02*
X177325666Y-57454819D01*
X177325666Y-57454819D02*
X177087571Y-57454819D01*
X177992333Y-56454819D02*
X178611380Y-56454819D01*
X178611380Y-56454819D02*
X178278047Y-56835771D01*
X178278047Y-56835771D02*
X178420904Y-56835771D01*
X178420904Y-56835771D02*
X178516142Y-56883390D01*
X178516142Y-56883390D02*
X178563761Y-56931009D01*
X178563761Y-56931009D02*
X178611380Y-57026247D01*
X178611380Y-57026247D02*
X178611380Y-57264342D01*
X178611380Y-57264342D02*
X178563761Y-57359580D01*
X178563761Y-57359580D02*
X178516142Y-57407200D01*
X178516142Y-57407200D02*
X178420904Y-57454819D01*
X178420904Y-57454819D02*
X178135190Y-57454819D01*
X178135190Y-57454819D02*
X178039952Y-57407200D01*
X178039952Y-57407200D02*
X177992333Y-57359580D01*
D11*
%TO.C,R2*%
X211624936Y-60225000D02*
X212079064Y-60225000D01*
X211624936Y-61695000D02*
X212079064Y-61695000D01*
%TO.C,D2*%
X200350332Y-59415000D02*
X200350332Y-62505000D01*
X200350332Y-59415170D02*
G75*
G02*
X205900332Y-60959952I2560000J-1544830D01*
G01*
X205900332Y-60960048D02*
G75*
G02*
X200350332Y-62504830I-2990000J48D01*
G01*
X205410332Y-60960000D02*
G75*
G02*
X200410332Y-60960000I-2500000J0D01*
G01*
X200410332Y-60960000D02*
G75*
G02*
X205410332Y-60960000I2500000J0D01*
G01*
%TO.C,R4*%
X161586936Y-60225000D02*
X162041064Y-60225000D01*
X161586936Y-61695000D02*
X162041064Y-61695000D01*
%TO.C,D4*%
X150181000Y-59415000D02*
X150181000Y-62505000D01*
X150181000Y-59415170D02*
G75*
G02*
X155731000Y-60959952I2560000J-1544830D01*
G01*
X155731000Y-60960048D02*
G75*
G02*
X150181000Y-62504830I-2990000J48D01*
G01*
X155241000Y-60960000D02*
G75*
G02*
X150241000Y-60960000I-2500000J0D01*
G01*
X150241000Y-60960000D02*
G75*
G02*
X155241000Y-60960000I2500000J0D01*
G01*
%TO.C,R3*%
X186478936Y-60225000D02*
X186933064Y-60225000D01*
X186478936Y-61695000D02*
X186933064Y-61695000D01*
%TO.C,R1*%
X236516936Y-60225000D02*
X236971064Y-60225000D01*
X236516936Y-61695000D02*
X236971064Y-61695000D01*
%TO.C,J1*%
X245304000Y-57180000D02*
X245304000Y-67400000D01*
X245304000Y-57180000D02*
X247964000Y-57180000D01*
X245304000Y-67400000D02*
X247964000Y-67400000D01*
X246634000Y-54580000D02*
X247964000Y-54580000D01*
X247964000Y-54580000D02*
X247964000Y-55910000D01*
X247964000Y-57180000D02*
X247964000Y-67400000D01*
%TO.C,D1*%
X225435000Y-59415000D02*
X225435000Y-62505000D01*
X225435000Y-59415170D02*
G75*
G02*
X230985000Y-60959952I2560000J-1544830D01*
G01*
X230985000Y-60960048D02*
G75*
G02*
X225435000Y-62504830I-2990000J48D01*
G01*
X230495000Y-60960000D02*
G75*
G02*
X225495000Y-60960000I-2500000J0D01*
G01*
X225495000Y-60960000D02*
G75*
G02*
X230495000Y-60960000I2500000J0D01*
G01*
%TO.C,D3*%
X175265666Y-59415000D02*
X175265666Y-62505000D01*
X175265666Y-59415170D02*
G75*
G02*
X180815666Y-60959952I2560000J-1544830D01*
G01*
X180815666Y-60960048D02*
G75*
G02*
X175265666Y-62504830I-2990000J48D01*
G01*
X180325666Y-60960000D02*
G75*
G02*
X175325666Y-60960000I-2500000J0D01*
G01*
X175325666Y-60960000D02*
G75*
G02*
X180325666Y-60960000I2500000J0D01*
G01*
%TD*%
M02*
